<svg width="22" height="36" viewBox="0 0 22 36" fill="none" xmlns="http://www.w3.org/2000/svg">
<path d="M10.3766 0.498688C9.87797 1.02611 9.28342 2.05219 9.07245 2.75223C9.00532 2.98238 8.9382 3.16458 8.91902 3.16458C8.90943 3.16458 8.62174 2.94402 8.2957 2.67551C7.60525 2.11932 6.53122 1.57272 5.94626 1.47682C5.59145 1.41928 5.53391 1.43846 5.39007 1.65902C5.11197 2.08096 5.00648 3.47144 5.16951 4.43999L5.30376 5.29346L5.06402 5.22633C4.51742 5.09208 2.6091 5.0729 2.12962 5.19756C1.47753 5.37017 1.37205 5.60032 1.61179 6.30995C1.86112 7.02916 2.36936 7.92099 2.83925 8.44842L3.23242 8.89912L2.62828 9.11009C1.41041 9.55121 0.0678711 10.5293 0.0678711 10.9801C0.0678711 11.4404 1.57343 12.524 2.72417 12.8884L3.22283 13.0514L2.74335 13.6459C2.1488 14.3843 1.59261 15.4775 1.53507 16.0433C1.48712 16.4365 1.5063 16.494 1.75563 16.6475C1.97619 16.8009 2.22552 16.8297 3.27078 16.8297C3.96122 16.8297 4.7188 16.7913 4.94895 16.7434C5.33253 16.6667 5.3613 16.6762 5.30376 16.8393C5.2654 16.9352 5.18869 17.3571 5.13115 17.7599C5.00648 18.6229 5.14074 19.9175 5.39966 20.3107C5.53391 20.5121 5.61063 20.5408 5.92708 20.4929C6.47368 20.4162 7.81622 19.7353 8.382 19.2366C8.65051 18.9969 8.89025 18.7955 8.91902 18.7955C8.9382 18.7955 9.01491 18.9777 9.08204 19.1983C9.26424 19.812 9.68618 20.6175 10.1273 21.1737L10.5205 21.6724L10.5013 25.1438L10.4725 28.6248L10.1369 28.1453C8.83271 26.2562 6.65588 25 4.43111 24.8657C3.34749 24.7986 3.28996 24.8465 3.30914 25.7863C3.35708 27.6371 4.27768 29.555 5.75447 30.9359C6.90521 32.0003 8.04637 32.5949 9.50398 32.873C9.93551 32.9497 10.3383 33.0264 10.4054 33.0456C10.4821 33.0648 10.5205 33.3525 10.5205 34.0237C10.5205 34.8196 10.5492 35.0019 10.6931 35.1265C10.9232 35.3375 11.1246 35.3279 11.3164 35.1169C11.4602 34.9635 11.4794 34.6566 11.4794 32.8154V30.6866L11.7 30.6482C11.8151 30.629 12.189 30.5619 12.5247 30.4948C15.4207 29.9673 17.9044 27.5604 18.5181 24.6835C18.5949 24.3191 18.6812 23.7629 18.7099 23.4369C18.7771 22.6409 18.6332 22.4396 18.0003 22.4396C16.9838 22.4396 15.4303 22.8615 14.4618 23.4081C13.474 23.9643 12.4192 24.9232 11.8822 25.7671C11.7383 25.9973 11.5945 26.1795 11.5561 26.1795C11.5082 26.1795 11.4794 25.1726 11.4794 23.9451V21.7107L11.8726 21.1929C12.3233 20.5888 12.7452 19.7928 12.9179 19.1983C13.0617 18.738 13.1096 18.7188 13.359 18.9969C13.8672 19.5627 15.6317 20.5121 16.1879 20.5216C16.3221 20.5216 16.5043 20.4449 16.5906 20.349C16.9263 19.975 17.0318 17.9421 16.7537 16.9831C16.6674 16.6667 16.6674 16.6667 16.9263 16.7242C17.4825 16.868 19.2086 16.8968 19.7552 16.7817C20.5128 16.6283 20.6566 16.4077 20.4361 15.7652C20.1867 15.0173 19.6689 14.0871 19.1894 13.5501L18.7579 13.0514L19.0264 12.9843C20.1867 12.7062 21.932 11.4979 21.932 10.9801C21.932 10.5293 20.5895 9.55121 19.3716 9.11009L18.7771 8.89912L19.199 8.40047C19.6689 7.87304 20.321 6.70312 20.484 6.08939C20.6374 5.52361 20.4648 5.33181 19.6689 5.17838C19.0552 5.06331 17.5496 5.09208 16.9263 5.23592C16.6674 5.29346 16.6674 5.28387 16.7537 4.98659C17.0509 3.96051 16.9263 1.90835 16.5427 1.57272C16.3797 1.41928 16.3126 1.41928 15.929 1.51518C15.2577 1.69738 14.3179 2.19603 13.685 2.70428C13.3686 2.95361 13.0905 3.16458 13.0809 3.16458C13.0617 3.16458 12.9946 2.98238 12.9274 2.75223C12.6206 1.72615 11.4123 3.05176e-05 10.9999 3.05176e-05C10.9232 3.05176e-05 10.6451 0.230179 10.3766 0.498688ZM11.2589 1.65902C11.8918 2.58921 12.3233 4.16189 12.2082 5.10167L12.1411 5.62909L11.6424 5.55237C11.3643 5.50443 10.8561 5.49484 10.5109 5.52361L9.87797 5.59073L9.81084 5.16879C9.69577 4.42081 9.95469 3.1454 10.3766 2.29193C10.578 1.87958 10.9328 1.34257 10.9999 1.34257C11.0287 1.34257 11.1438 1.48641 11.2589 1.65902ZM6.92439 2.97279C8.10391 3.65364 8.7464 4.43999 8.82312 5.32223L8.86148 5.8976L8.27652 6.24282L7.70114 6.58804L7.15454 6.21405C6.66547 5.88801 6.57917 5.77293 6.39697 5.24551C6.25312 4.85234 6.16682 4.31532 6.13805 3.66323C6.07092 2.52208 6.09969 2.5029 6.92439 2.97279ZM15.8906 3.4235C15.881 4.21943 15.7851 4.77562 15.5358 5.44689C15.4207 5.76334 15.2577 5.94555 14.8549 6.22364L14.3275 6.57845L13.733 6.24282L13.148 5.90719L13.1864 5.32223C13.2343 4.65096 13.474 4.22902 14.1549 3.62488C14.6632 3.17417 15.4783 2.6851 15.7276 2.6851C15.8714 2.6851 15.8906 2.781 15.8906 3.4235ZM4.97772 6.29077C5.58186 6.47297 6.51204 6.95245 6.74219 7.20177C6.88603 7.3648 6.88603 7.39357 6.63671 7.69084C6.48327 7.86345 6.23395 8.29498 6.06133 8.65939L5.76406 9.30188L5.14074 8.99502C4.36399 8.59226 3.38585 7.62371 2.9735 6.84696C2.80089 6.52092 2.65705 6.23323 2.65705 6.20446C2.65705 6.00308 4.20096 6.07021 4.97772 6.29077ZM19.0456 6.09898C19.4196 6.17569 19.3908 6.30995 18.8346 7.17301C18.3647 7.9114 17.5592 8.64021 16.8112 9.0142L16.255 9.30188L15.9386 8.6498C15.7659 8.29498 15.507 7.86345 15.3728 7.68125C15.1426 7.3648 15.133 7.33603 15.2865 7.17301C15.8618 6.5401 18.077 5.90719 19.0456 6.09898ZM12.563 6.8086C14.2892 7.46069 15.4399 9.12927 15.4399 10.9801C15.4399 13.5692 13.3302 15.5639 10.7698 15.42C8.89984 15.3049 7.33674 14.1062 6.77096 12.3514C6.59835 11.8143 6.56958 11.5362 6.60794 10.7595C6.63671 9.88685 6.67506 9.743 7.0107 9.07174C7.60525 7.85386 8.60256 7.01957 9.85879 6.66476C10.578 6.46338 11.8342 6.53051 12.563 6.8086ZM4.96813 10.0403L5.53391 10.2992V10.9801V11.6609L4.96813 11.9294C4.33522 12.2363 3.93246 12.2267 2.95432 11.8815C2.331 11.6705 1.41041 11.1239 1.41041 10.9801C1.41041 10.865 2.25429 10.328 2.70499 10.1649C3.16529 9.99233 3.93246 9.79095 4.18178 9.79095C4.29686 9.78136 4.66126 9.89643 4.96813 10.0403ZM19.0264 10.0786C19.6689 10.2992 20.5895 10.8266 20.5895 10.9801C20.5895 11.1335 19.6018 11.7089 18.988 11.9102C18.0387 12.2363 17.6743 12.2363 17.0318 11.939L16.466 11.6609V10.9801V10.2896L17.0222 10.0403C17.6551 9.75259 18.1058 9.76218 19.0264 10.0786ZM5.97503 13.1569C6.07092 13.387 6.32025 13.8186 6.53122 14.1254C6.88603 14.6624 6.89562 14.6912 6.72301 14.8159C6.33943 15.1036 5.45719 15.5255 4.91059 15.6885C4.34481 15.8515 2.82966 15.9378 2.70499 15.8036C2.57074 15.6789 3.28996 14.5378 3.85574 13.9624C4.36399 13.4446 5.39966 12.7637 5.68734 12.7541C5.74488 12.7541 5.87913 12.9363 5.97503 13.1569ZM17.3482 13.3007C17.7126 13.5309 18.2017 13.972 18.4414 14.2693C18.9209 14.8542 19.3908 15.7077 19.2949 15.8036C19.1702 15.9378 17.6551 15.8515 17.0989 15.6885C16.5235 15.5159 15.6125 15.0844 15.2769 14.8255C15.1043 14.6912 15.1139 14.6624 15.4687 14.1254C15.6796 13.8186 15.929 13.387 16.0249 13.1569C16.1879 12.7925 16.2358 12.7445 16.4564 12.8021C16.5906 12.8404 16.9934 13.061 17.3482 13.3007ZM8.46831 15.8419L8.87107 16.0433L8.82312 16.6283C8.78476 17.0406 8.69846 17.3187 8.52585 17.5872C8.18062 18.0859 7.43264 18.7284 6.76137 19.0832C6.28189 19.3421 6.19559 19.3613 6.14764 19.2271C6.01339 18.901 6.17641 17.405 6.40656 16.7625C6.60794 16.1968 6.70383 16.0721 7.16413 15.7365C7.64361 15.3912 7.71073 15.3721 7.88335 15.4967C7.98883 15.5734 8.25734 15.7269 8.46831 15.8419ZM14.9508 15.794C15.3248 16.0625 15.4303 16.2159 15.6029 16.7146C15.8139 17.3091 15.9769 18.9202 15.8523 19.2271C15.7276 19.5723 14.0302 18.4024 13.474 17.5872C13.2918 17.3091 13.2151 17.0598 13.1864 16.6187L13.148 16.0242L13.4836 15.8707C13.6754 15.7844 13.9343 15.6406 14.0686 15.5351C14.1933 15.4392 14.3467 15.3817 14.4042 15.42C14.4522 15.4488 14.7015 15.6214 14.9508 15.794ZM12.1986 16.7913C12.3617 17.7599 11.8726 19.5339 11.1917 20.4257C11.0095 20.6655 11.0095 20.6655 10.8561 20.4737C10.6451 20.2052 10.2328 19.4093 10.0794 18.949C9.87797 18.3928 9.73413 17.2804 9.81084 16.8297L9.86838 16.4365H10.9999H12.1411L12.1986 16.7913ZM17.6743 23.7054C17.3674 25.2109 17.1948 25.6712 16.6194 26.5631C16.092 27.3686 15.2769 28.1837 14.5481 28.6248C14.0207 28.9509 12.8411 29.4399 12.611 29.4399C12.5439 29.4399 13.0905 28.8454 13.8097 28.1166C15.2385 26.6781 15.3632 26.4384 14.8837 26.1219C14.6632 25.9781 14.6248 25.9781 14.4138 26.1123C14.2892 26.1987 13.6467 26.822 12.985 27.4932C12.3233 28.1645 11.7479 28.6919 11.7192 28.6536C11.6329 28.5673 12.1219 27.3398 12.5247 26.659C12.9179 26.0069 13.848 25.0191 14.4905 24.5876C15.2769 24.0506 16.7153 23.5232 17.4537 23.504C17.6743 23.4944 17.7126 23.5232 17.6743 23.7054ZM5.91749 26.1795C7.69156 26.7644 9.26424 28.2412 9.97387 29.9769C10.4821 31.2236 10.4438 31.2236 8.95737 29.7468C8.1998 28.9988 7.51894 28.3851 7.44223 28.3851C7.20249 28.3851 6.87644 28.6728 6.87644 28.8933C6.87644 29.0372 7.31756 29.5454 8.23816 30.466C8.99573 31.2236 9.56152 31.8373 9.50398 31.8373C9.44644 31.8373 9.15876 31.751 8.85189 31.6455C7.82581 31.3003 7.14495 30.8592 6.29148 30.0153C5.59145 29.3153 5.39966 29.0563 5.02566 28.2892C4.78592 27.7905 4.54619 27.1384 4.47906 26.8507C4.42152 26.5631 4.3544 26.2178 4.32563 26.0932C4.27768 25.8726 4.28727 25.863 4.78592 25.9206C5.06402 25.9493 5.57227 26.0644 5.91749 26.1795Z" fill="black"/>
<path d="M11.1438 8.05524C11 8.20867 10.9808 8.30456 11.0575 8.51553C11.1822 8.87035 11.6808 8.92788 11.9014 8.61143C12.0932 8.33333 12.0932 8.28539 11.863 8.05524C11.6137 7.80591 11.3644 7.8155 11.1438 8.05524Z" fill="black"/>
<path d="M8.13272 9.43613C7.97929 9.61833 8.03683 10.069 8.22862 10.1937C8.47795 10.3471 8.88071 10.1937 8.94784 9.90602C8.98619 9.77177 8.96701 9.58956 8.91907 9.50326C8.7944 9.30188 8.28616 9.25393 8.13272 9.43613Z" fill="black"/>
<path d="M13.3974 10.117C13.2343 10.3088 13.2439 10.7403 13.407 10.8458C13.4837 10.8938 13.6659 10.9225 13.8289 10.913C14.2125 10.8746 14.3851 10.4527 14.1166 10.165C13.9152 9.93482 13.57 9.91565 13.3974 10.117Z" fill="black"/>
<path d="M10.6835 10.6252C10.4726 10.8554 10.4822 11.1527 10.6931 11.3445C10.9137 11.5458 11.1343 11.5554 11.326 11.354C11.5274 11.1527 11.5178 10.8074 11.3069 10.6156C11.0767 10.4047 10.8753 10.4143 10.6835 10.6252Z" fill="black"/>
<path d="M8.71759 12.428C8.42991 12.6294 8.4395 12.9938 8.74636 13.1952C8.95733 13.3294 9.03405 13.339 9.22584 13.2336C9.5327 13.0705 9.56147 12.5239 9.28338 12.3705C9.03405 12.2458 8.96692 12.2458 8.71759 12.428Z" fill="black"/>
<path d="M12.5344 12.8788C12.0933 13.0993 12.2371 13.809 12.7262 13.809C13.1865 13.809 13.3591 13.1473 12.9659 12.8884C12.8125 12.7829 12.7262 12.7829 12.5344 12.8788Z" fill="black"/>
</svg>
